<?xml version="1.0" encoding="UTF-8"?>
<!DOCTYPE svg PUBLIC "-//W3C//DTD SVG 1.1//EN" "http://www.w3.org/Graphics/SVG/1.1/DTD/svg11.dtd">
<svg xmlns="http://www.w3.org/2000/svg" version="1.1" width="48px" height="48px" style="shape-rendering:geometricPrecision; text-rendering:geometricPrecision; image-rendering:optimizeQuality; fill-rule:evenodd; clip-rule:evenodd" xmlns:xlink="http://www.w3.org/1999/xlink">
<g><path style="opacity:1" fill="#000000" d="M -0.5,-0.5 C 15.5,-0.5 31.5,-0.5 47.5,-0.5C 47.5,15.5 47.5,31.5 47.5,47.5C 31.5,47.5 15.5,47.5 -0.5,47.5C -0.5,31.5 -0.5,15.5 -0.5,-0.5 Z"/></g>
<g><path style="opacity:1" fill="#fae314" d="M 9.5,3.5 C 18.6575,2.34235 27.9908,2.17569 37.5,3C 35.3333,5.16667 33.1667,7.33333 31,9.5C 30.5034,11.8098 30.3367,14.1432 30.5,16.5C 32.8568,16.6633 35.1902,16.4966 37.5,16C 39.6667,13.8333 41.8333,11.6667 44,9.5C 44.6667,18.8333 44.6667,28.1667 44,37.5C 41.8333,35.3333 39.6667,33.1667 37.5,31C 35.1902,30.5034 32.8568,30.3367 30.5,30.5C 30.3367,32.8568 30.5034,35.1902 31,37.5C 33.1667,39.6667 35.3333,41.8333 37.5,44C 28.1667,44.6667 18.8333,44.6667 9.5,44C 11.6667,41.8333 13.8333,39.6667 16,37.5C 16.4966,35.1902 16.6633,32.8568 16.5,30.5C 14.1432,30.3367 11.8098,30.5034 9.5,31C 7.33333,33.1667 5.16667,35.3333 3,37.5C 2.33333,28.1667 2.33333,18.8333 3,9.5C 5.16667,11.6667 7.33333,13.8333 9.5,16C 11.8098,16.4966 14.1432,16.6633 16.5,16.5C 17.234,10.5556 14.9007,6.2223 9.5,3.5 Z"/></g>
</svg>
